<svg preserveAspectRatio="none" width="100%" height="100%" overflow="visible" style="display: block;" viewBox="0 0 14 14" fill="none" xmlns="http://www.w3.org/2000/svg">
<path id="Path" fill-rule="evenodd" clip-rule="evenodd" d="M1.5 7C1.5 3.96243 3.96243 1.5 7 1.5C10.0376 1.5 12.5 3.96243 12.5 7L12.4981 8.08008C12.4972 8.61698 12.0616 9.05172 11.525 9.05172C10.9875 9.05172 10.5517 8.616 10.5517 8.0785V3.98276H9.05172V4.17718C8.4552 3.74538 7.73273 3.5 7 3.5C5.21969 3.5 3.5 4.94859 3.5 7C3.5 9.05141 5.21969 10.5 7 10.5C7.91672 10.5 8.81735 10.1159 9.47542 9.46323C9.92004 10.12 10.6721 10.5517 11.525 10.5517C12.8892 10.5517 13.9957 9.44683 13.9981 8.08276L14 7C14 3.13401 10.866 0 7 0C3.13401 0 0 3.13401 0 7C0 10.866 3.13401 14 7 14C8.42638 14 9.75521 13.5726 10.8626 12.8387L10.0339 11.5883C9.16465 12.1644 8.12265 12.5 7 12.5C3.96243 12.5 1.5 10.0376 1.5 7ZM5 7C5 5.84695 5.9764 5 7 5C8.0236 5 9 5.84695 9 7C9 8.15305 8.0236 9 7 9C5.9764 9 5 8.15305 5 7Z" fill="var(--fill-0, #525252)"/>
</svg>
