<svg xmlns="http://www.w3.org/2000/svg" viewBox="0 0 48 48" shape-rendering="geometricPrecision" text-rendering="geometricPrecision">
  <g transform="matrix(-0.305 0 0 0.305 23.363465 45.382455)"><path d="M24.72,6.616c0-7.308-4.772-13.232-10.659-13.232c0,0-28.122,0-28.122,0-5.887,0-10.659,5.924-10.659,13.232c0,0,49.44,0,49.44,0Z" fill="#ff5f46" stroke-width="0"/></g>
  <g transform="matrix(0.305 0 0 0.305 24 27.5)"><g transform="translate(0,14.701)"><g transform="translate(0,0)"><path d="M35.6,14.696c7.051-5.966,22.84-29.216,33.357-46.111c0,0-8.325,0-8.325,0-3.708,0-7.023,1.967-9.357,4.849-4.51,5.569-13.344,13.295-29.459,13.295c0,0-11.027,0-11.027,0-2.304,0-4.506,1.017-5.891,2.858-2.231,2.965-3.991,5.722-5.316,8.005-1.256,2.164-5.058,2.144-6.327-.014-1.37-2.328-3.229-5.15-5.654-8.181-1.384-1.73-3.511-2.668-5.727-2.668c0,0-29.657,0-29.657,0s0,.003,0,.003-2.504,0-2.504,0c-10.311,0-18.67,8.359-18.67,18.67s8.359,18.671,18.67,18.671c0-10.965-3.97-11.115-5.462-14.63-.278-.657-.432-1.394-.432-2.199c0-3.43,2.781-6.212,6.212-6.212c2.611.001,4.844,1.612,5.762,3.895c0-.019,0-.037,0-.055c6.482,15.638,21.087,26.543,38.065,26.543c24.236,0,34.692-10.754,41.742-16.719Z" fill="#fabfba" stroke-width="0"/></g></g></g>
  <g transform="matrix(0.305 0 0 0.305 24 27.5)"><g transform="translate(-3.631,-27.505)"><g transform="rotate(90)"><g transform="scale(-1,1) translate(0,0)"><path d="M0,37.217c0-.047,0-.094,0-.142" fill="#ff5f46" stroke-width="0"/><path d="M0,-37.217c.078,20.489,16.946,37.074,37.743,37.074C16.898,-0.142,0,16.521,0,37.075c0-20.554-16.898-37.217-37.742-37.217c20.796,0,37.665-16.586,37.742-37.075Z" fill="#ff5f46" stroke-width="0"/></g></g></g></g>
</svg>
