<svg preserveAspectRatio="none" width="100%" height="100%" overflow="visible" style="display: block;" viewBox="0 0 13.1255 13.1277" fill="none" xmlns="http://www.w3.org/2000/svg">
<path id="Path" fill-rule="evenodd" clip-rule="evenodd" d="M1.3125 6.125C1.3125 3.46713 3.46713 1.3125 6.125 1.3125C8.78287 1.3125 10.9375 3.46713 10.9375 6.125C10.9375 8.78287 8.78287 10.9375 6.125 10.9375C3.46713 10.9375 1.3125 8.78287 1.3125 6.125ZM6.125 0C2.74226 0 0 2.74226 0 6.125C0 9.50774 2.74226 12.25 6.125 12.25C7.5795 12.25 8.91559 11.743 9.96619 10.8961L12.1973 13.1277L13.1255 12.1997L10.8945 9.96823C11.7424 8.91732 12.25 7.58044 12.25 6.125C12.25 2.74226 9.50774 0 6.125 0Z" fill="var(--fill-0, #6F6F6F)"/>
</svg>
