<svg width="16" height="16" viewBox="0 0 16 16" fill="none" xmlns="http://www.w3.org/2000/svg">
<path fill-rule="evenodd" clip-rule="evenodd" d="M6.64798 1.02871C6.76836 0.757863 7.03695 0.583313 7.33334 0.583313C8.06269 0.583313 8.76216 0.873044 9.27789 1.38877C9.79361 1.90449 10.0833 2.60397 10.0833 3.33331V5.24998H13.1029C13.4033 5.24726 13.7007 5.30953 13.9748 5.43255C14.2504 5.55621 14.4957 5.73829 14.6939 5.96619C14.892 6.19408 15.0383 6.46234 15.1225 6.75237C15.2067 7.0424 15.2268 7.34728 15.1815 7.64586L14.2615 13.6458C14.1861 14.1423 13.9337 14.5955 13.551 14.9208C13.1694 15.2452 12.6837 15.4212 12.1829 15.4166H2.66668C2.11414 15.4166 1.58424 15.1972 1.19354 14.8065C0.802837 14.4158 0.583344 13.8858 0.583344 13.3333V8.66665C0.583344 8.11411 0.802837 7.58421 1.19354 7.19351C1.58424 6.80281 2.11414 6.58331 2.66668 6.58331H4.17927L6.64798 1.02871ZM3.91668 8.08331H2.66668C2.51197 8.08331 2.36359 8.14477 2.2542 8.25417C2.1448 8.36356 2.08334 8.51194 2.08334 8.66665V13.3333C2.08334 13.488 2.1448 13.6364 2.2542 13.7458C2.36359 13.8552 2.51197 13.9166 2.66668 13.9166H3.91668V8.08331ZM5.41668 13.9166H12.1952C12.3358 13.9182 12.4723 13.869 12.5795 13.7779C12.6867 13.6867 12.7574 13.56 12.7785 13.4209L13.6985 7.42077C13.7111 7.33739 13.7055 7.25157 13.682 7.17059C13.6584 7.08938 13.6174 7.01427 13.562 6.95046C13.5065 6.88665 13.4378 6.83566 13.3606 6.80104C13.2835 6.76641 13.1997 6.74897 13.1152 6.74993L13.1067 6.75003L9.33334 6.74998C8.91913 6.74998 8.58334 6.41419 8.58334 5.99998V3.33331C8.58334 3.00179 8.45165 2.68385 8.21723 2.44943C8.09271 2.32492 7.94464 2.22938 7.78348 2.16717L5.41668 7.49247V13.9166Z" fill="#6F6F6F"/>
</svg>
