<svg width="16" height="16" viewBox="0 0 16 16" fill="none" xmlns="http://www.w3.org/2000/svg">
<path fill-rule="evenodd" clip-rule="evenodd" d="M13.6551 2.27362C13.5082 2.14753 13.3201 2.07977 13.1266 2.08319L13.1133 2.08343L12.0833 2.08331V7.91664H13.1266C13.3201 7.92007 13.5082 7.85242 13.6551 7.72633C13.7913 7.60943 13.8833 7.44994 13.9167 7.27442V2.72553C13.8833 2.55002 13.7913 2.39052 13.6551 2.27362ZM10.5833 8.50748V2.08331H3.80484C3.66417 2.08172 3.52765 2.13098 3.42046 2.22209C3.31326 2.31321 3.24261 2.44 3.22151 2.5791L3.22133 2.58031L2.3015 8.57919C2.2889 8.66265 2.29449 8.74831 2.31802 8.82937C2.3416 8.91058 2.38255 8.98569 2.43804 9.0495C2.49353 9.11331 2.56222 9.1643 2.63937 9.19892C2.71652 9.23354 2.80027 9.25098 2.88483 9.25002L2.89332 9.24993L6.66666 9.24998C7.08087 9.24998 7.41666 9.58576 7.41666 9.99998V12.6666C7.41666 12.9982 7.54835 13.3161 7.78277 13.5505C7.90729 13.675 8.05536 13.7706 8.21652 13.8328L10.5833 8.50748ZM11.8207 9.41664L9.35202 14.9712C9.23164 15.2421 8.96305 15.4166 8.66666 15.4166C7.93731 15.4166 7.23784 15.1269 6.72211 14.6112C6.20639 14.0955 5.91666 13.396 5.91666 12.6666V10.75H2.89704C2.59667 10.7527 2.29925 10.6904 2.02518 10.5674C1.74965 10.4438 1.5043 10.2617 1.30613 10.0338C1.10796 9.80587 0.961706 9.53762 0.877504 9.24758C0.793301 8.95755 0.773162 8.65268 0.818483 8.35409L1.73847 2.35419C1.81393 1.85768 2.06632 1.40445 2.44898 1.07918C2.83063 0.754786 3.31633 0.57878 3.81709 0.58331H13.1073C13.6658 0.575209 14.2081 0.771516 14.6321 1.13542C15.0579 1.50092 15.3347 2.01003 15.4099 2.56611C15.4144 2.59943 15.4167 2.63302 15.4167 2.66664V7.33331C15.4167 7.36693 15.4144 7.40052 15.4099 7.43384C15.3347 7.98993 15.0579 8.49904 14.6321 8.86453C14.2081 9.22844 13.6658 9.42474 13.1073 9.41664H11.8207Z" fill="#6F6F6F"/>
</svg>
